<svg viewBox="0 0 24 24" xmlns="http://www.w3.org/2000/svg">
  <!-- Background square -->
  <path d="M20.4 0H3.6C1.61177 0 0 1.61177 0 3.6V20.4C0 22.3882 1.61177 24 3.6 24H20.4C22.3882 24 24 22.3882 24 20.4V3.6C24 1.61177 22.3882 0 20.4 0Z" fill="#F7DF1E"/>
  
  <!-- J letter -->
  <path d="M5 18.5L7.3 17.2C7.8 18.2 8.3 18.9 9.6 18.9C10.8 18.9 11.5 18.4 11.5 17V10H14.5V17.1C14.5 20 12.9 21 9.8 21C7 21 5.5 19.8 5 18.5Z" fill="black"/>
  
  <!-- S letter -->
  <path d="M15.5 18.5L17.8 17.2C18.3 18.2 18.9 18.9 20.1 18.9C21.1 18.9 21.7 18.4 21.7 17.7C21.7 16.9 21.1 16.6 19.9 16.2L19.3 16C17.4 15.4 16.1 14.5 16.1 12.3C16.1 10.3 17.7 8.8 20.1 8.8C21.8 8.8 23 9.4 23.9 11.1L21.7 12.5C21.3 11.6 20.9 11.3 20.1 11.3C19.3 11.3 18.8 11.8 18.8 12.5C18.8 13.4 19.3 13.7 20.4 14.1L21 14.3C23.3 15 24.6 15.9 24.6 18.2C24.6 20.5 22.7 21.5 20.2 21.5C17.8 21.5 16.2 20.3 15.5 18.5Z" fill="black"/>
</svg>